<svg width="161" height="67" viewBox="0 0 161 67" fill="none" xmlns="http://www.w3.org/2000/svg">
<path d="M78.8283 66.1493L66.4104 39.6418H71.5447L78.8283 55.8807L86.9477 39.6418L94.8283 55.8807L102.351 39.6418H107.485L94.8283 66.1493L86.9477 49.9105L78.8283 66.1493Z" fill="#E87722"/>
<circle cx="32.5" cy="21.9703" r="6.68657" fill="#E87722"/>
<circle cx="32.5" cy="35.3433" r="6.68657" fill="#E87722"/>
<circle cx="19.1269" cy="21.9703" r="6.68657" fill="#E87722"/>
<circle cx="7.90301" cy="19.3433" r="3.58209" fill="#E87722"/>
<circle cx="39.6641" cy="41.5523" r="3.34328" fill="#E87722"/>
<circle cx="22.4701" cy="49.6717" r="3.34328" fill="#E87722"/>
<circle cx="12.6791" cy="3.58209" r="3.58209" fill="#E87722"/>
<circle cx="44.2015" cy="7.88067" r="3.58209" fill="#E87722"/>
<circle cx="24.8582" cy="9.0747" r="4.77612" fill="#E87722"/>
<circle cx="46.3508" cy="27.2239" r="4.77612" fill="#E87722"/>
<circle cx="5.27612" cy="37.7314" r="4.77612" fill="#E87722"/>
<circle cx="19.1269" cy="35.3433" r="6.68657" fill="#E87722"/>
<path fill-rule="evenodd" clip-rule="evenodd" d="M56.1418 39.4031L68.7985 65.9105H64.5L62.3508 61.612H49.4553L47.306 65.9105H43.4851L56.1418 39.4031ZM51.8433 56.8359L55.903 48.7165L59.9627 56.8359H51.8433Z" fill="#E87722"/>
<path d="M110.828 39.6418H115.604V50.1493H129.455V39.6418H134.231V65.9105H129.455V55.403H115.604V65.9105H110.828V39.6418Z" fill="#E87722"/>
<path d="M147.604 39.6418H143.306V65.9105H160.5V61.612H147.604V39.6418Z" fill="#E87722"/>
</svg>
