<svg width="18" height="18" viewBox="0 0 18 18" fill="none" xmlns="http://www.w3.org/2000/svg">
<g clip-path="url(#clip0_4814_58)">
<path d="M16.875 13.5C16.875 13.7984 16.7565 14.0845 16.5455 14.2955C16.3345 14.5065 16.0484 14.625 15.75 14.625H2.25C1.95163 14.625 1.66548 14.5065 1.4545 14.2955C1.24353 14.0845 1.125 13.7984 1.125 13.5V6.75C1.125 6.45163 1.24353 6.16548 1.4545 5.95451C1.66548 5.74353 1.95163 5.625 2.25 5.625H3.5685C4.46314 5.62451 5.32099 5.26883 5.9535 4.63612L6.88725 3.70462C7.09763 3.49418 7.38281 3.37566 7.68038 3.375H10.3174C10.6157 3.37506 10.9018 3.49363 11.1128 3.70462L12.0443 4.63612C12.3577 4.94968 12.7299 5.1984 13.1395 5.36807C13.5491 5.53775 13.9881 5.62505 14.4315 5.625H15.75C16.0484 5.625 16.3345 5.74353 16.5455 5.95451C16.7565 6.16548 16.875 6.45163 16.875 6.75V13.5ZM2.25 4.5C1.65326 4.5 1.08097 4.73705 0.65901 5.15901C0.237053 5.58097 0 6.15326 0 6.75L0 13.5C0 14.0967 0.237053 14.669 0.65901 15.091C1.08097 15.5129 1.65326 15.75 2.25 15.75H15.75C16.3467 15.75 16.919 15.5129 17.341 15.091C17.7629 14.669 18 14.0967 18 13.5V6.75C18 6.15326 17.7629 5.58097 17.341 5.15901C16.919 4.73705 16.3467 4.5 15.75 4.5H14.4315C13.8348 4.49987 13.2626 4.26274 12.8407 3.84075L11.9093 2.90925C11.4874 2.48726 10.9152 2.25013 10.3185 2.25H7.6815C7.08481 2.25013 6.51261 2.48726 6.09075 2.90925L5.15925 3.84075C4.73739 4.26274 4.16519 4.49987 3.5685 4.5H2.25Z" fill="#518575"/>
<path d="M9 12.375C8.25408 12.375 7.53871 12.0787 7.01126 11.5512C6.48382 11.0238 6.1875 10.3084 6.1875 9.5625C6.1875 8.81658 6.48382 8.10121 7.01126 7.57376C7.53871 7.04632 8.25408 6.75 9 6.75C9.74592 6.75 10.4613 7.04632 10.9887 7.57376C11.5162 8.10121 11.8125 8.81658 11.8125 9.5625C11.8125 10.3084 11.5162 11.0238 10.9887 11.5512C10.4613 12.0787 9.74592 12.375 9 12.375ZM9 13.5C10.0443 13.5 11.0458 13.0852 11.7842 12.3467C12.5227 11.6083 12.9375 10.6068 12.9375 9.5625C12.9375 8.51821 12.5227 7.51669 11.7842 6.77827C11.0458 6.03984 10.0443 5.625 9 5.625C7.95571 5.625 6.95419 6.03984 6.21577 6.77827C5.47734 7.51669 5.0625 8.51821 5.0625 9.5625C5.0625 10.6068 5.47734 11.6083 6.21577 12.3467C6.95419 13.0852 7.95571 13.5 9 13.5ZM3.375 7.3125C3.375 7.46168 3.31574 7.60476 3.21025 7.71025C3.10476 7.81574 2.96168 7.875 2.8125 7.875C2.66332 7.875 2.52024 7.81574 2.41475 7.71025C2.30926 7.60476 2.25 7.46168 2.25 7.3125C2.25 7.16332 2.30926 7.02024 2.41475 6.91475C2.52024 6.80926 2.66332 6.75 2.8125 6.75C2.96168 6.75 3.10476 6.80926 3.21025 6.91475C3.31574 7.02024 3.375 7.16332 3.375 7.3125Z" fill="#518575"/>
</g>
<defs>
<clipPath id="clip0_4814_58">
<rect width="18" height="18" fill="white"/>
</clipPath>
</defs>
</svg>
