<svg width="50" height="50" viewBox="0 0 50 50" fill="none" xmlns="http://www.w3.org/2000/svg">
<path d="M3.41 5.875V32.86H46.59V5.875H3.41ZM47.725 2.5C48.98 2.5 49.9975 3.5075 49.9975 4.75V33.985C49.9975 35.2275 48.98 36.235 47.7225 36.235L26.3975 36.2325V44.125H34.99C35.9325 44.125 36.695 44.8825 36.695 45.8125C36.6917 46.2621 36.5104 46.692 36.1909 47.0083C35.8714 47.3245 35.4396 47.5013 34.99 47.5H14.9525C14.5029 47.5013 14.0711 47.3245 13.7516 47.0083C13.4321 46.692 13.2508 46.2621 13.2475 45.8125C13.2475 44.8825 14.0125 44.1275 14.9525 44.1275L22.9925 44.125V36.2325H2.2725C1.67354 36.2358 1.09775 36.0012 0.671647 35.5803C0.24554 35.1593 0.00396623 34.5865 0 33.9875L0 4.75C0 3.5075 1.0175 2.5 2.275 2.5H47.725Z" fill="black"/>
</svg>
