<svg width="50" height="50" viewBox="0 0 50 50" fill="none" xmlns="http://www.w3.org/2000/svg">
<path d="M46.7236 41.2646L43.7695 30.8594V8.20312C43.7695 7.33887 43.0713 6.64062 42.207 6.64062H7.83202C6.96777 6.64062 6.26952 7.33887 6.26952 8.20312V30.8594L3.31542 41.2646C2.94921 42.2852 3.70117 43.3594 4.78515 43.3594H45.2539C46.3379 43.3594 47.0898 42.2852 46.7236 41.2646ZM9.78515 10.1562H40.2539V29.4434H9.78515V10.1562ZM20.9326 39.8438L21.3281 38.0371H28.667L29.0625 39.8438H20.9326ZM31.8701 39.8438L30.9375 35.6104C30.8984 35.4297 30.7373 35.3027 30.5566 35.3027H19.4434C19.2578 35.3027 19.1016 35.4297 19.0625 35.6104L18.1299 39.8438H7.37304L9.43847 32.5684H40.6006L42.666 39.8438H31.8701Z" fill="black"/>
</svg>
