<svg width="50" height="50" viewBox="0 0 50 50" fill="none" xmlns="http://www.w3.org/2000/svg">
<path fill-rule="evenodd" clip-rule="evenodd" d="M13.9342 2.99671C14.7394 2.19148 15.8981 1.5625 17.1875 1.5625H32.8125C34.1019 1.5625 35.2606 2.19148 36.0658 2.99671C36.871 3.80194 37.5 4.96058 37.5 6.25V43.75C37.5 45.0394 36.871 46.1981 36.0658 47.0033C35.2606 47.8085 34.1019 48.4375 32.8125 48.4375H17.1875C15.8981 48.4375 14.7394 47.8085 13.9342 47.0033C13.129 46.1981 12.5 45.0394 12.5 43.75V6.25C12.5 4.96058 13.129 3.80194 13.9342 2.99671ZM15.625 9.375V40.625H34.375V9.375H15.625ZM34.375 6.25H15.625C15.625 5.97692 15.7773 5.57306 16.1439 5.20642C16.5106 4.83977 16.9144 4.6875 17.1875 4.6875H32.8125C33.0856 4.6875 33.4894 4.83977 33.8561 5.20642C34.2227 5.57306 34.375 5.97692 34.375 6.25ZM34.375 43.75H15.625C15.625 44.0231 15.7773 44.4269 16.1439 44.7936C16.5106 45.1602 16.9144 45.3125 17.1875 45.3125H32.8125C33.0856 45.3125 33.4894 45.1602 33.8561 44.7936C34.2227 44.4269 34.375 44.0231 34.375 43.75Z" fill="#2C2A29"/>
</svg>
