<svg xmlns="http://www.w3.org/2000/svg" width="80" height="80" viewBox="0 0 80 80" fill="none">
  <path fill-rule="evenodd" clip-rule="evenodd" d="M33.0896 6.66666H46.9108C52.9885 6.66657 57.8879 6.66649 61.7412 7.18474C65.7417 7.72279 69.1104 8.87393 71.7849 11.5506C74.4601 14.2248 75.6108 17.5928 76.1488 21.5923C76.667 25.4456 76.6669 30.345 76.6668 36.4228V36.9106C76.6669 42.9883 76.667 47.8877 76.1488 51.741C75.6108 55.7405 74.4601 59.1086 71.7849 61.7827C69.1104 64.4594 65.7417 65.6105 61.7412 66.1486C57.8879 66.6668 52.9885 66.6668 46.9107 66.6667H46.6668C43.3452 66.6667 39.3766 68.0446 35.3991 70.1086L35.1948 70.2146C32.0331 71.8557 29.41 73.2172 27.3734 74.0087C26.3263 74.4155 25.2154 74.762 24.1192 74.8655C22.979 74.973 21.6176 74.8365 20.3728 73.999C18.0333 72.427 17.7487 69.6375 17.6993 67.7983C17.685 67.2671 17.6912 66.6901 17.7134 66.0704C13.9521 65.5038 10.7684 64.3387 8.21621 61.7834C5.54041 59.1092 4.38955 55.7409 3.85158 51.741C3.33333 47.8877 3.33341 42.9883 3.3335 36.9106V36.4227C3.33341 30.345 3.33333 25.4456 3.85158 21.5923C4.38957 17.5923 5.54048 14.2239 8.21648 11.5496C10.8907 8.87364 14.2592 7.72273 18.2592 7.18474C22.1124 6.66649 27.0118 6.66657 33.0896 6.66666ZM18.2238 59.4003L18.347 58.0341C18.5122 56.2006 20.1325 54.8482 21.966 55.0134C23.7996 55.1787 25.152 56.799 24.9867 58.6325L24.8464 60.1896C24.5263 63.6968 24.3206 66.0194 24.3635 67.6192C24.3674 67.7614 24.3731 67.8896 24.3802 68.0048C24.548 67.9487 24.74 67.8796 24.9586 67.7947C26.6183 67.1497 28.921 65.9597 32.3279 64.1914C36.637 61.9554 41.7486 60 46.6668 60C53.0461 60 57.4955 59.9929 60.8525 59.5414C64.1137 59.1028 65.8399 58.3006 67.0688 57.0706C68.2988 55.8417 69.103 54.1135 69.5416 50.8523C69.9931 47.4953 70.0002 43.0459 70.0002 36.6667C70.0002 30.2874 69.9931 25.838 69.5416 22.481C69.103 19.2198 68.3008 17.4936 67.0708 16.2647C65.8419 15.0347 64.1137 14.2305 60.8525 13.7919C57.4955 13.3404 53.0461 13.3333 46.6668 13.3333H33.3335C26.9542 13.3333 22.5048 13.3404 19.1478 13.7919C15.8867 14.2305 14.1604 15.0327 12.9315 16.2627C11.7016 17.4916 10.8974 19.2198 10.4588 22.481C10.0073 25.838 10.0002 30.2874 10.0002 36.6667C10.0002 43.0459 10.0073 47.4953 10.4588 50.8523C10.8974 54.1135 11.6996 55.8397 12.9295 57.0686L12.9323 57.0714C14.0391 58.1799 15.5489 58.941 18.2238 59.4003ZM38.1101 27.1832C37.6412 27.5543 37.0725 28.2708 36.3089 29.7827C35.479 31.426 33.474 32.0853 31.8308 31.2554C30.1875 30.4255 29.5282 28.4205 30.3581 26.7773C31.2612 24.9892 32.3592 23.2324 33.9736 21.9551C35.7042 20.5858 37.7214 20 40.0002 20C46.2239 20 50.0002 25.0272 50.0002 29.9267C50.0002 31.015 49.8659 32.1516 49.3758 33.2575C48.8713 34.3958 48.1168 35.2175 47.3319 35.8661C46.604 36.4677 45.7295 37.0136 44.8982 37.5252C44.753 37.6146 44.6052 37.7052 44.4542 37.7977C44.1 38.0148 43.7286 38.2425 43.3335 38.4892V40C43.3335 41.8409 41.8411 43.3333 40.0002 43.3333C38.1592 43.3333 36.6668 41.8409 36.6668 40V36.6667C36.6668 35.5461 37.2298 34.5006 38.1653 33.8838C39.2639 33.1594 40.2173 32.5752 40.9885 32.1026C41.1336 32.0137 41.2722 31.9287 41.4042 31.8475C42.2917 31.3013 42.7713 30.9865 43.0851 30.7272C43.1993 30.6328 43.2577 30.5726 43.2842 30.542C43.2995 30.4827 43.3335 30.3062 43.3335 29.9267C43.3335 28.2327 42.0831 26.6667 40.0002 26.6667C38.9456 26.6667 38.4628 26.9042 38.1101 27.1832ZM43.2769 30.5662L43.2786 30.5616ZM40.0002 45C41.8411 45 43.3335 46.4924 43.3335 48.3333V50C43.3335 51.8409 41.8411 53.3333 40.0002 53.3333C38.1592 53.3333 36.6668 51.8409 36.6668 50V48.3333C36.6668 46.4924 38.1592 45 40.0002 45Z" fill="#2C2A29"/>
</svg>
