<svg width="50" height="50" viewBox="0 0 50 50" fill="none" xmlns="http://www.w3.org/2000/svg">
<path d="M39.0625 3.125H10.9375C9.21387 3.125 7.8125 4.52637 7.8125 6.25V43.75C7.8125 45.4736 9.21387 46.875 10.9375 46.875H39.0625C40.7861 46.875 42.1875 45.4736 42.1875 43.75V6.25C42.1875 4.52637 40.7861 3.125 39.0625 3.125ZM38.6719 43.3594H11.3281V6.64062H38.6719V43.3594ZM23.0469 38.2812C23.0469 38.7993 23.2527 39.296 23.6189 39.6623C23.9852 40.0286 24.482 40.2344 25 40.2344C25.518 40.2344 26.0148 40.0286 26.3811 39.6623C26.7474 39.296 26.9531 38.7993 26.9531 38.2812C26.9531 37.7632 26.7474 37.2665 26.3811 36.9002C26.0148 36.5339 25.518 36.3281 25 36.3281C24.482 36.3281 23.9852 36.5339 23.6189 36.9002C23.2527 37.2665 23.0469 37.7632 23.0469 38.2812Z" fill="black"/>
</svg>
